<svg xmlns="http://www.w3.org/2000/svg" xml:space="preserve" fill="#8783D1" width="12" height="12" viewBox="0 0 32 32">
    <path d="M16 21c.3 0 .6-.1.8-.4l13-17c.3-.4.3-1.1-.2-1.4-.4-.3-1.1-.3-1.4.2l-5.7 7.5-1-4.8c-.4-1.8-2-3.1-3.8-3.1h-3.4c-1.8 0-3.4 1.2-3.8 3L5.8 25.5c-.3 1.1 0 2.2.7 3.1.7.9 1.7 1.4 2.8 1.4h13.3c1.1 0 2.2-.5 2.9-1.4.7-.9.9-2 .7-3.1l-2.5-9.7c-.1-.5-.7-.9-1.2-.7-.5.1-.9.7-.7 1.2l1.5 5.8H8.6l3.8-16.5c.2-.9 1-1.5 1.8-1.5h3.4c.9 0 1.7.6 1.8 1.5l1.4 6.5-5.6 7.4c-.3.4-.3 1.1.2 1.4.2 0 .4.1.6.1z"/>
    <path d="M15 8h2c.6 0 1-.4 1-1s-.4-1-1-1h-2c-.6 0-1 .4-1 1s.4 1 1 1zM15 11h2c.6 0 1-.4 1-1s-.4-1-1-1h-2c-.6 0-1 .4-1 1s.4 1 1 1zM15 14h2c.6 0 1-.4 1-1s-.4-1-1-1h-2c-.6 0-1 .4-1 1s.4 1 1 1z"/>
</svg>